<svg width="353" height="223" viewBox="0 0 353 223" fill="none" xmlns="http://www.w3.org/2000/svg">
<path d="M78.9395 103.532C72.5133 92.4024 58.3466 88.595 47.2469 95.0383C36.1472 101.482 32.3499 115.686 38.776 126.815L78.9395 103.532Z" fill="#FF5784"/>
<path d="M122.389 186.269L126.624 185.757C128.304 185.391 129.91 186.416 130.275 188.1L130.933 191.102L127.939 191.761L120.563 194.25L117.569 194.909L112.969 186.635L111.07 182.535L119.249 178.654L121.147 182.755L122.389 186.269Z" fill="#FF5784"/>
<path d="M133.708 192.42L118.884 197.252C118.519 197.398 118.3 197.838 118.373 198.204C118.519 198.57 118.957 198.79 119.322 198.716L134.146 193.884C134.511 193.737 134.73 193.298 134.657 192.932C134.511 192.493 134.073 192.273 133.708 192.42Z" fill="#3D248A"/>
<path d="M120.709 180.851C120.052 181.29 119.249 181.583 118.592 182.022C118.226 182.242 118.153 182.681 118.372 183.047C118.592 183.414 119.103 183.487 119.395 183.267C120.052 182.828 120.855 182.535 121.513 182.096C121.878 181.876 121.951 181.363 121.732 181.071C121.513 180.704 121.074 180.631 120.709 180.851Z" fill="#3D248A"/>
<path d="M122.024 184.365C121.367 184.951 120.782 185.537 120.125 186.049C119.833 186.342 119.76 186.782 120.052 187.148C120.344 187.441 120.782 187.514 121.148 187.221C121.805 186.635 122.389 186.049 123.046 185.464C123.338 185.171 123.411 184.732 123.119 184.365C122.827 184.073 122.389 184.073 122.024 184.365Z" fill="#3D248A"/>
<path d="M149.846 159.691L152.913 156.689C154.008 155.371 155.907 155.151 157.222 156.249L159.558 158.153L157.587 160.496L153.351 167.013L151.38 169.429L142.69 165.768L138.673 163.718L142.763 155.59L146.779 157.641L149.846 159.691Z" fill="#FF5784"/>
<path d="M162.479 157.567L153.716 170.527C153.497 170.893 153.57 171.332 153.936 171.552C154.301 171.772 154.739 171.699 154.958 171.332L163.721 158.373C163.94 158.007 163.867 157.567 163.502 157.348C163.21 157.128 162.772 157.201 162.479 157.567Z" fill="#3D248A"/>
<path d="M145.246 156.396C145.026 157.128 144.588 157.86 144.296 158.592C144.15 158.958 144.369 159.398 144.734 159.544C145.099 159.691 145.538 159.471 145.684 159.105C145.976 158.373 146.414 157.64 146.633 156.908C146.779 156.542 146.56 156.103 146.122 155.956C145.757 155.81 145.319 156.03 145.246 156.396Z" fill="#3D248A"/>
<path d="M148.386 158.373C148.24 159.178 148.167 160.057 147.947 160.862C147.874 161.301 148.093 161.668 148.532 161.741C148.97 161.814 149.335 161.594 149.408 161.155C149.554 160.35 149.7 159.471 149.846 158.592C149.919 158.153 149.627 157.787 149.262 157.714C148.897 157.714 148.459 158.007 148.386 158.373Z" fill="#3D248A"/>
<path d="M61.4136 76.5871C63.3852 80.8338 62.1438 86.252 57.5433 86.5449C56.74 86.6181 55.9367 86.3252 55.2065 86.0323C53.4539 85.3001 52.3585 83.9822 51.5553 82.3714C50.679 80.6873 50.0948 78.7104 49.3645 76.8067C49.2915 76.5871 48.9994 76.4406 48.7803 76.5139C48.5613 76.5871 48.4152 76.88 48.4882 77.0996C49.2185 79.0033 49.8027 81.0534 50.679 82.7375C51.6283 84.4947 52.8697 86.0323 54.8414 86.7645C55.7176 87.1306 56.667 87.3503 57.5433 87.277C62.801 86.9109 64.4076 80.907 62.1438 76.0013C62.0708 75.7817 61.7787 75.7084 61.5596 75.7817C61.4136 76.0745 61.3405 76.3674 61.4136 76.5871Z" fill="#3D248A"/>
<path d="M48.9994 76.5871C47.977 76.5139 46.8086 76.3674 46.0784 75.562C45.056 74.4637 44.983 72.3404 46.5165 71.7546C47.2468 71.4617 47.977 71.6082 48.7073 71.6814C48.9263 71.6814 49.1454 71.535 49.2184 71.2421C49.2184 71.0224 49.0724 70.8028 48.7803 70.8028C47.904 70.7295 47.0277 70.5831 46.2244 70.9492C44.1067 71.8278 44.0337 74.6834 45.4942 76.221C46.3705 77.1728 47.7579 77.4657 48.9994 77.4657C49.2184 77.4657 49.4375 77.3193 49.4375 77.0264C49.4375 76.8067 49.2915 76.5871 48.9994 76.5871Z" fill="#3D248A"/>
<path d="M56.521 172.138V201.645C56.521 202.084 56.8861 202.377 57.2512 202.377C57.6894 202.377 57.9815 202.011 57.9815 201.645V172.138C57.9815 171.699 57.6164 171.406 57.2512 171.406C56.8861 171.406 56.521 171.772 56.521 172.138Z" fill="#3D248A"/>
<path d="M56.5938 169.795L72.3671 202.011C72.5862 202.377 73.0243 202.524 73.3894 202.377C73.7545 202.158 73.9006 201.718 73.7545 201.352L57.9813 169.136C57.7622 168.77 57.3241 168.623 56.9589 168.77C56.5938 168.916 56.4478 169.356 56.5938 169.795Z" fill="#3D248A"/>
<path d="M56.5938 169.063L40.8206 201.279C40.6015 201.645 40.8206 202.084 41.1857 202.304C41.5508 202.524 41.9889 202.304 42.208 201.938L57.9813 169.722C58.2004 169.356 57.9813 168.916 57.6162 168.697C57.2511 168.55 56.8129 168.697 56.5938 169.063Z" fill="#3D248A"/>
<path d="M106.762 0.658971V27.3107C106.762 27.6768 107.054 27.9697 107.419 27.9697C107.784 27.9697 108.076 27.6768 108.076 27.3107V0.658971C108.076 0.292876 107.784 0 107.419 0C107.054 0 106.762 0.292876 106.762 0.658971Z" fill="#3D248A"/>
<path d="M160.508 181.144L171.388 203.402C171.607 203.768 172.045 203.915 172.411 203.768C172.776 203.549 172.922 203.11 172.776 202.743L161.895 180.485C161.676 180.119 161.238 179.972 160.873 180.119C160.435 180.338 160.289 180.778 160.508 181.144Z" fill="#3D248A"/>
<path d="M213.961 137.652L246.165 203.402C246.384 203.768 246.822 203.915 247.188 203.768C247.553 203.549 247.699 203.109 247.553 202.743L215.349 136.92C215.13 136.553 214.692 136.407 214.327 136.553C213.961 136.773 213.815 137.212 213.961 137.652Z" fill="#3D248A"/>
<path d="M139.185 136.92L123.119 169.795C122.9 170.161 123.119 170.6 123.484 170.82C123.849 171.04 124.288 170.82 124.507 170.454L140.572 137.578C140.791 137.212 140.572 136.773 140.207 136.553C139.842 136.407 139.331 136.553 139.185 136.92Z" fill="#3D248A"/>
<path d="M110.851 194.836L106.981 202.743C106.762 203.11 106.981 203.549 107.346 203.769C107.711 203.988 108.149 203.769 108.368 203.402L112.238 195.495C112.458 195.129 112.238 194.689 111.873 194.47C111.508 194.323 111.07 194.47 110.851 194.836Z" fill="#3D248A"/>
<path d="M213.962 136.92L181.758 202.67C181.539 203.036 181.758 203.476 182.123 203.695C182.488 203.915 182.926 203.695 183.145 203.329L215.349 137.578C215.568 137.212 215.349 136.773 214.984 136.553C214.619 136.407 214.181 136.553 213.962 136.92Z" fill="#3D248A"/>
<path d="M87.1182 150.172C84.4163 151.929 68.2779 161.741 49.9488 158.812C43.8147 157.86 40.1635 155.297 37.9728 152.296C32.9341 145.266 36.1471 135.382 36.1471 135.382C36.2202 135.162 36.3662 135.089 36.5853 135.089H84.6354C92.668 135.089 100.044 139.482 103.987 146.511C110.194 157.641 118.738 173.163 118.738 173.163C118.811 173.236 118.811 173.383 118.811 173.529C118.811 173.675 118.665 173.749 118.592 173.822L106.251 180.338C106.032 180.412 105.812 180.412 105.666 180.192L87.1182 150.172ZM37.0234 136.041C36.5123 137.725 34.5406 145.852 38.776 151.856C40.8207 154.712 44.3259 157.055 50.1678 158.007C69.8844 161.155 87.0452 149.22 87.0452 149.22C87.1182 149.147 87.2642 149.147 87.4103 149.147C87.5563 149.147 87.6294 149.22 87.7024 149.367L106.324 179.387L117.934 173.309L103.403 147.024C99.6784 140.288 92.595 136.114 84.8544 136.114H37.0234V136.041Z" fill="#3D248A"/>
<path d="M138.746 153.833L111.727 139.702C111.508 139.555 111.435 139.336 111.508 139.116C111.654 138.896 111.873 138.823 112.093 138.896L139.477 153.247C139.696 153.321 139.769 153.613 139.696 153.833L135.387 164.23C135.314 164.377 135.241 164.45 135.095 164.45C134.949 164.523 134.876 164.45 134.73 164.45L113.042 152.808C112.823 152.662 112.75 152.442 112.823 152.222C112.969 152.003 113.188 151.929 113.407 152.003L134.657 163.425L138.746 153.833Z" fill="#3D248A"/>
<path d="M46.9546 69.0455C46.9546 71.3153 54.111 76.7335 61.8516 76.3674C68.7889 76.0013 69.8842 64.7256 61.8516 62.7486C52.3584 60.4056 46.9546 69.0455 46.9546 69.0455Z" fill="#3D248A"/>
<path d="M49.4376 71.3153C48.7074 71.3153 48.0502 71.3885 47.3199 71.535C45.5674 71.9743 44.1799 73.7316 45.5674 75.4156C46.7357 76.8068 51.2633 77.3925 49.6567 80.1748C48.4883 82.0785 45.7134 81.8589 43.8878 81.4196C39.5063 80.3945 36.4393 76.6603 35.7821 72.4868C35.1249 68.2401 38.7761 63.847 42.8654 62.9684C46.3706 62.2362 50.9712 63.4809 51.8474 67.3615L49.4376 71.3153Z" fill="#3D248A"/>
<path d="M39.8714 75.8549C35.782 76.0745 32.2769 76.8799 29.0638 79.6622C25.4856 82.8107 24.9744 88.6682 29.5019 91.3041C32.788 93.2078 37.3886 92.3291 40.3826 90.2058C41.4049 89.4736 42.4273 88.6682 43.2305 87.6431C43.4496 87.277 43.6687 86.9841 43.8147 86.6181C43.8877 86.4716 44.1068 85.8859 44.0338 86.1055C43.7417 87.4967 43.6687 88.9611 44.618 90.1326C46.6627 92.6952 50.752 91.0112 51.7014 88.3753C52.7967 85.2269 51.1902 82.6642 49.9488 79.8819L39.8714 75.8549Z" fill="#3D248A"/>
<path d="M59.3687 95.4043C59.3687 95.5508 59.3687 95.6972 59.3687 95.8436C59.2957 96.4294 59.0766 97.1616 58.5655 97.6741C58.2003 98.0402 57.7622 98.3331 57.251 98.3331C56.0826 98.3331 55.3524 97.6741 54.9142 96.7223C54.4031 95.4043 54.4761 93.5739 54.6952 92.622C54.7682 92.4024 54.9873 92.2559 55.2063 92.2559C55.4254 92.3291 55.5715 92.5488 55.5715 92.7685C55.3524 93.6471 55.2794 95.1847 55.7175 96.3562C56.0096 97.0152 56.4478 97.4545 57.178 97.4545C57.5431 97.4545 57.8352 97.2348 57.9813 96.9419C58.2003 96.5758 58.3464 96.1365 58.4194 95.7704C58.4194 95.4776 58.4194 95.1847 58.3464 94.8918C58.3464 94.7454 58.2003 94.5989 58.2003 94.4525C58.2003 94.3061 58.2003 94.2328 58.2003 94.1596C58.2734 94.0132 58.3464 93.94 58.4194 93.8667C58.4924 93.7935 58.6385 93.7935 58.8576 93.8667C59.0036 93.94 59.1497 94.0132 59.2957 94.1596C59.5148 94.3061 59.6608 94.5989 59.8069 94.7454C60.245 95.1115 60.6102 95.5508 61.1943 95.6972C61.5595 95.8436 61.9976 95.8437 62.3627 95.7704C62.5088 95.6972 62.7279 95.624 62.8009 95.4776C62.9469 95.3311 62.9469 95.1115 62.8739 94.8186C62.7279 94.0132 62.2167 93.6471 61.7055 93.0613C61.5595 92.8417 61.5595 92.622 61.7785 92.4024C61.9976 92.2559 62.2167 92.2559 62.4358 92.4756C63.02 93.1346 63.5311 93.6471 63.7502 94.5989C63.8963 95.1847 63.7502 95.624 63.5311 95.9901C63.3121 96.283 62.9469 96.5026 62.5818 96.5758C62.0706 96.7223 61.4134 96.6491 60.9022 96.4294C60.3181 96.2097 59.8069 95.8437 59.3687 95.4043Z" fill="white"/>
<path d="M55.1335 129.598L91.4997 121.324C91.7187 121.251 92.0108 121.397 92.0108 121.69C92.0838 121.91 91.9378 122.203 91.6457 122.203L55.0605 130.549C54.9144 130.549 54.7684 130.549 54.6953 130.476C54.6953 130.476 41.3319 118.102 36.0011 108.218C34.8327 106.021 34.0294 103.971 33.8834 102.214C33.6643 100.31 34.1025 98.6992 35.4169 97.5277C40.2365 93.1346 45.4943 95.0383 50.0218 99.0653C55.9368 104.337 60.6833 113.123 61.5596 114.734L91.5727 112.318C91.7918 112.318 92.0108 112.464 92.0838 112.757C92.0838 112.977 91.9378 113.197 91.6457 113.27L61.2675 115.686C61.1215 115.686 60.9024 115.613 60.8294 115.466C60.8294 115.466 55.8637 105.509 49.3646 99.7975C45.2022 96.1366 40.3826 94.2329 35.9281 98.2599C34.8327 99.2117 34.5406 100.603 34.6867 102.141C34.9057 103.825 35.636 105.801 36.7313 107.852C41.697 116.858 53.527 128.133 55.1335 129.598Z" fill="#3D248A"/>
<path d="M146.195 126.815H91.5725V130.11H146.195V126.815Z" fill="#3D248A"/>
<path d="M154.374 103.532H118.446L110.194 126.815H146.195L154.374 103.532Z" fill="#3D248A"/>
<path d="M92.0108 112.611C92.814 109.316 94.8587 106.387 97.9988 104.923C98.656 104.63 99.8244 104.337 100.847 104.483C101.358 104.557 101.796 104.703 102.088 105.069C102.234 105.289 102.307 105.582 102.307 105.948C102.234 106.68 101.723 107.046 101.139 107.266C100.409 107.559 99.5323 107.632 98.802 107.778C96.8304 108.291 95.2969 109.609 94.7127 111.659C94.6396 111.879 94.7857 112.171 95.0048 112.245C95.2238 112.318 95.5159 112.171 95.589 111.952C96.1001 110.268 97.4146 109.17 99.0211 108.73C99.7514 108.511 100.628 108.437 101.431 108.144C102.307 107.778 103.037 107.193 103.184 106.021C103.257 105.362 103.11 104.85 102.818 104.483C102.526 104.117 102.161 103.825 101.65 103.678C100.409 103.312 98.583 103.605 97.6336 104.044C94.2015 105.655 92.0108 108.803 91.1345 112.391C91.0615 112.611 91.2075 112.904 91.4266 112.904C91.7187 112.977 91.9377 112.83 92.0108 112.611Z" fill="#3D248A"/>
<path d="M95.5159 112.098C97.9257 110.854 100.993 109.828 103.476 111.293C104.133 111.659 104.717 112.025 105.009 112.684C105.447 113.563 105.228 114.807 104.133 114.881C103.768 114.881 103.33 114.661 102.964 114.441C102.453 114.148 102.015 113.782 101.577 113.563C100.555 113.05 99.3862 113.05 98.2908 112.904C98.0718 112.904 97.8527 113.05 97.7797 113.343C97.7797 113.563 97.9257 113.782 98.2178 113.856C99.2402 113.929 100.262 113.929 101.139 114.368C101.65 114.588 102.161 115.1 102.745 115.393C103.183 115.686 103.695 115.832 104.206 115.759C105.958 115.613 106.47 113.709 105.812 112.245C105.447 111.366 104.644 110.854 103.914 110.414C101.139 108.803 97.7066 109.828 95.0778 111.22C94.8587 111.366 94.7857 111.586 94.8587 111.805C95.0778 112.098 95.2968 112.171 95.5159 112.098Z" fill="#3D248A"/>
<path d="M98.0718 113.782C99.6783 114.514 100.92 115.1 101.358 117.077C101.431 117.37 101.504 117.809 101.358 118.175C101.285 118.468 101.139 118.688 100.847 118.761C100.628 118.834 100.409 118.688 100.263 118.468C99.9704 118.249 99.6783 117.883 99.4592 117.663C98.5829 116.931 97.4876 116.638 96.4652 116.345C96.2462 116.272 95.9541 116.418 95.9541 116.638C95.881 116.857 96.0271 117.15 96.2462 117.15C97.1955 117.37 98.1448 117.663 98.9481 118.249C99.2402 118.468 99.6053 118.908 99.9704 119.201C100.336 119.42 100.701 119.567 101.139 119.493C101.65 119.347 102.015 119.054 102.234 118.542C102.453 117.956 102.453 117.224 102.307 116.711C101.723 114.514 100.409 113.782 98.5099 112.904C98.2908 112.83 97.9987 112.904 97.9257 113.123C97.7067 113.416 97.8527 113.636 98.0718 113.782Z" fill="#3D248A"/>
<path d="M68.3509 91.8899C69.6653 90.1326 71.4179 89.3272 73.0975 89.4004C74.8501 89.4736 76.5296 90.4987 77.771 92.256C80.546 96.2098 80.3269 101.701 80.619 106.314C80.619 106.534 80.8381 106.753 81.0571 106.753C81.2762 106.753 81.4953 106.534 81.4953 106.314C81.2762 101.482 81.3492 95.8437 78.5013 91.7434C77.0408 89.6933 75.0691 88.595 73.0975 88.5218C71.1258 88.4486 69.0811 89.3272 67.5476 91.3773C67.4016 91.597 67.4746 91.8899 67.6207 92.0363C67.9127 92.1095 68.2048 92.1095 68.3509 91.8899Z" fill="#3D248A"/>
<path d="M108.733 99.5778C106.908 97.4545 105.155 95.0383 103.695 92.622C103.549 92.4024 103.257 92.3292 103.11 92.4756C102.891 92.622 102.818 92.9149 102.964 93.0613C104.498 95.4776 106.251 97.967 108.076 100.09C108.222 100.31 108.514 100.31 108.733 100.164C108.879 100.017 108.879 99.7243 108.733 99.5778Z" fill="#3D248A"/>
<path d="M116.62 96.7955C115.525 91.3041 114.064 85.9591 113.261 80.4677C113.261 80.248 112.969 80.0284 112.75 80.1016C112.531 80.1016 112.312 80.3945 112.385 80.6141C113.115 86.1788 114.648 91.5237 115.744 97.0152C115.817 97.2348 116.036 97.3813 116.255 97.3813C116.474 97.2348 116.62 97.0152 116.62 96.7955Z" fill="#3D248A"/>
<path d="M125.31 95.8437C126.04 92.7685 126.99 89.6933 128.012 86.6913C128.085 86.4716 127.939 86.1788 127.72 86.1055C127.501 86.0323 127.209 86.1788 127.136 86.3984C126.113 89.4004 125.164 92.5488 124.434 95.624C124.361 95.8437 124.507 96.1365 124.799 96.1365C125.018 96.2098 125.237 96.0633 125.31 95.8437Z" fill="#3D248A"/>
<path d="M136.045 112.757C135.679 112.611 135.168 112.684 134.73 112.904C134.219 113.197 133.635 113.782 133.343 114.588C133.051 115.393 133.051 116.199 133.27 116.784C133.416 117.224 133.708 117.59 134.146 117.736C134.511 117.883 135.022 117.809 135.46 117.59C135.972 117.297 136.556 116.711 136.848 115.906C137.14 115.1 137.14 114.295 136.921 113.709C136.775 113.27 136.483 112.904 136.045 112.757ZM135.753 113.563C135.899 113.636 136.045 113.782 136.118 114.002C136.264 114.441 136.264 115.027 136.045 115.54C135.826 116.125 135.46 116.565 135.095 116.784C134.876 116.857 134.73 116.931 134.584 116.857C134.438 116.784 134.292 116.638 134.219 116.418C134.073 115.979 134.073 115.393 134.292 114.881C134.511 114.295 134.876 113.856 135.241 113.636C135.387 113.563 135.606 113.489 135.753 113.563Z" fill="white"/>
<path d="M292.536 162.766C294.142 154.858 299.254 139.116 315.538 132.892C322.987 130.037 332.991 133.698 331.896 143.363C331.531 146.658 329.778 149.44 327.514 151.783C325.324 154.126 322.549 156.103 320.139 157.787C316.05 160.716 311.011 163.864 306.702 167.671C302.467 171.406 298.889 175.652 297.72 180.851C297.647 181.071 297.428 181.217 297.209 181.217C296.99 181.144 296.844 180.924 296.844 180.704C298.086 175.359 301.737 170.893 306.118 167.013C310.427 163.205 315.538 159.984 319.628 157.055C322.038 155.371 324.666 153.467 326.857 151.124C328.975 148.854 330.654 146.292 331.02 143.216C332.042 134.357 322.768 131.062 315.904 133.698C296.26 141.239 293.266 162.912 292.828 166.866C292.755 167.305 292.755 167.525 292.755 167.525C292.682 167.891 292.317 167.891 292.244 167.891C292.244 167.891 291.879 167.818 291.879 167.452C291.879 160.569 290.856 157.348 288.958 154.785C287.862 153.321 286.329 153.028 284.868 153.613C282.531 154.565 280.414 157.567 280.414 161.668C280.414 168.257 282.677 175.213 286.621 180.485C286.767 180.704 286.694 180.997 286.548 181.144C286.329 181.29 286.037 181.217 285.89 181.071C281.874 175.652 279.464 168.477 279.464 161.668C279.464 157.201 281.874 153.833 284.503 152.808C286.329 152.076 288.3 152.442 289.688 154.272C291.148 156.323 292.098 158.666 292.536 162.766Z" fill="#3D248A"/>
<path d="M294.069 180.851C293.923 167.159 305.826 150.758 317.583 145.193C317.802 145.12 317.875 144.827 317.802 144.608C317.729 144.388 317.437 144.315 317.218 144.388C305.169 150.099 293.047 166.866 293.193 180.851C293.193 181.071 293.412 181.29 293.631 181.29C293.85 181.29 294.069 181.071 294.069 180.851Z" fill="#3D248A"/>
<path d="M286.694 164.669C287.643 168.33 288.373 171.772 288.812 175.506C288.812 175.726 289.031 175.945 289.323 175.872C289.542 175.872 289.761 175.652 289.688 175.359C289.25 171.552 288.519 168.038 287.57 164.377C287.497 164.157 287.278 164.011 287.059 164.084C286.767 164.157 286.621 164.377 286.694 164.669Z" fill="#3D248A"/>
<path d="M299.619 180.412C299.473 180.558 299.473 180.851 299.619 180.997C299.765 181.144 299.984 181.217 300.203 181.071C300.203 181.071 306.556 177.117 314.662 180.704C316.707 181.583 318.021 181.363 318.824 180.704C319.555 180.045 319.847 178.947 319.628 177.629C319.336 175.872 318.167 173.822 316.196 172.724C314.078 171.479 311.522 171.699 308.966 172.797C305.388 174.261 301.737 177.556 299.619 180.412ZM301.591 179.387C304.147 178.361 309.185 177.19 315.1 179.826C316.634 180.485 317.729 180.485 318.313 179.972C318.898 179.533 318.971 178.654 318.824 177.702C318.605 176.165 317.51 174.408 315.83 173.383C313.932 172.284 311.668 172.504 309.404 173.456C306.556 174.774 303.635 177.044 301.591 179.387Z" fill="#00D5FF"/>
<path d="M282.605 181.217C282.751 181.29 282.97 181.29 283.116 181.144C283.262 180.997 283.262 180.778 283.189 180.631C283.189 180.631 280.341 174.115 274.207 173.968C272.6 173.895 271.286 174.481 270.482 175.213C269.825 175.799 269.46 176.604 269.533 177.336C269.606 178.069 270.044 178.874 271.067 179.46C272.235 180.119 273.403 180.265 274.718 180.265C275.886 180.265 277.128 180.119 278.369 180.119C279.976 180.119 281.363 180.631 282.605 181.217ZM281.801 179.899C280.779 178.142 278.296 174.993 274.207 174.847C272.819 174.774 271.724 175.286 271.067 175.945C270.702 176.311 270.482 176.824 270.482 177.263C270.555 177.776 270.921 178.288 271.578 178.654C272.6 179.24 273.696 179.387 274.791 179.387C275.959 179.387 277.201 179.24 278.515 179.24C279.61 179.24 280.779 179.533 281.801 179.899Z" fill="#3D248A"/>
<path d="M243.683 19.403H165.546C165.181 19.403 164.816 19.6959 164.816 20.1352V123.154C164.816 123.52 165.108 123.887 165.546 123.887H243.683C244.048 123.887 244.413 123.594 244.413 123.154V20.062C244.413 19.6959 244.048 19.403 243.683 19.403ZM166.277 20.7942H243.025V122.422H166.277V20.7942Z" fill="#3D248A"/>
<path d="M294.289 19.6227H251.934C251.569 19.6227 251.204 19.9156 251.204 20.3549V123.374C251.204 123.74 251.496 124.106 251.934 124.106H294.289C294.654 124.106 295.019 123.813 295.019 123.374V20.2817C295.019 19.9156 294.654 19.6227 294.289 19.6227ZM252.592 21.0138H293.558V122.642H252.592V21.0138Z" fill="#3D248A"/>
<path d="M352.562 210.724H0.438146C0.219073 210.724 0 210.944 0 211.164V221.634C0 221.854 0.219073 222.073 0.438146 222.073H352.562C352.781 222.073 353 221.854 353 221.634V211.164C353 210.944 352.781 210.724 352.562 210.724ZM352.124 221.121H0.876293V211.603H352.124V221.121Z" fill="#3D248A"/>
<path d="M252.08 28.9947H294.288C294.58 28.9947 294.726 28.7751 294.726 28.5554C294.726 28.2625 294.507 28.1161 294.288 28.1161H252.08C251.788 28.1161 251.642 28.3357 251.642 28.5554C251.642 28.7751 251.861 28.9947 252.08 28.9947Z" fill="#3D248A"/>
<path d="M294.726 35.3648C294.726 35.6577 294.507 35.8041 294.288 35.8041H252.08C251.788 35.8041 251.642 35.5844 251.642 35.3648C251.642 35.0719 251.861 34.9255 252.08 34.9255H294.288C294.58 34.9255 294.726 35.0719 294.726 35.3648Z" fill="#3D248A"/>
<path d="M252.08 42.6867H294.288C294.58 42.6867 294.726 42.467 294.726 42.2474C294.726 41.9545 294.507 41.808 294.288 41.808H252.08C251.788 41.808 251.642 42.0277 251.642 42.2474C251.642 42.467 251.861 42.6867 252.08 42.6867Z" fill="#3D248A"/>
<path d="M252.08 49.4961H294.288C294.58 49.4961 294.726 49.2764 294.726 49.0567C294.726 48.7639 294.507 48.6174 294.288 48.6174H252.08C251.788 48.6174 251.642 48.8371 251.642 49.0567C251.642 49.3496 251.861 49.4961 252.08 49.4961Z" fill="#3D248A"/>
<path d="M252.08 56.3786H294.288C294.58 56.3786 294.726 56.159 294.726 55.9393C294.726 55.6464 294.507 55.5 294.288 55.5H252.08C251.788 55.5 251.642 55.7197 251.642 55.9393C251.642 56.159 251.861 56.3786 252.08 56.3786Z" fill="#3D248A"/>
<path d="M251.934 63.2612H294.142C294.434 63.2612 294.58 63.0415 294.58 62.8219C294.58 62.529 294.361 62.3826 294.142 62.3826H251.934C251.642 62.3826 251.496 62.6022 251.496 62.8219C251.423 63.0415 251.642 63.2612 251.934 63.2612Z" fill="#3D248A"/>
<path d="M252.08 70.0706H294.288C294.58 70.0706 294.726 69.8509 294.726 69.6313C294.726 69.3384 294.507 69.192 294.288 69.192H252.08C251.788 69.192 251.642 69.4116 251.642 69.6313C251.642 69.8509 251.861 70.0706 252.08 70.0706Z" fill="#3D248A"/>
<path d="M107.492 40.3437C110.34 40.3437 112.677 42.6867 112.677 45.5422C112.677 48.3978 110.34 50.7408 107.492 50.7408C104.644 50.7408 102.307 48.3978 102.307 45.5422C102.234 42.6867 104.571 40.3437 107.492 40.3437Z" fill="#FFC700"/>
<path d="M128.669 44.6636C128.669 32.9485 119.176 23.4301 107.492 23.4301C95.8081 23.4301 86.3149 32.9485 86.3149 44.6636H128.669Z" fill="#3D248A"/>
<path d="M280.268 185.317H307.579L300.714 204.061H287.132L280.268 185.317Z" fill="#FFC700"/>
<path d="M243.975 110.341C233.678 104.63 226.522 103.166 219.438 96.7223C212.866 90.7183 209.58 82.8839 207.389 74.7566C207.316 74.5369 207.097 74.3905 206.805 74.4637C206.586 74.5369 206.44 74.7566 206.513 75.0494C208.777 83.3964 212.136 91.3773 218.854 97.4545C226.011 103.971 233.167 105.435 243.536 111.146C243.756 111.293 244.048 111.22 244.194 111C244.267 110.78 244.194 110.487 243.975 110.341Z" fill="#3D248A"/>
<path d="M227.909 102.214C226.887 94.7454 226.376 86.8377 226.887 79.2962C226.887 79.0033 226.741 78.7836 226.449 78.7836C226.157 78.7836 225.938 78.9301 225.938 79.2229C225.426 86.8377 225.938 94.7454 226.96 102.287C226.96 102.507 227.252 102.726 227.471 102.653C227.763 102.726 227.982 102.507 227.909 102.214Z" fill="#3D248A"/>
<path d="M213.742 90.279C210.164 89.254 205.126 89.9129 201.766 91.3041C201.547 91.3773 201.401 91.6702 201.547 91.8899C201.62 92.1095 201.912 92.256 202.132 92.1095C205.345 90.7916 210.164 90.1326 213.523 91.0845C213.742 91.1577 214.034 91.0112 214.108 90.7916C214.108 90.6451 213.961 90.3523 213.742 90.279Z" fill="#3D248A"/>
<path d="M235.066 67.0686C235.796 69.0455 235.285 71.9743 233.386 74.0976C231.487 76.2942 228.639 77.246 226.449 76.8799C225.718 74.903 226.23 72.0475 228.201 69.8509C230.027 67.7276 232.875 66.7757 235.066 67.0686Z" fill="#00D5FF"/>
<path d="M215.203 61.2843C218.416 61.1378 222.432 62.9683 224.988 66.4096C227.544 69.9241 227.909 74.1708 226.668 76.9532C223.528 77.0996 219.438 75.2691 216.882 71.7546C214.327 68.3865 213.888 64.0666 215.203 61.2843Z" fill="#00D5FF"/>
<path d="M186.87 79.0033C190.083 78.8568 194.099 80.6873 196.655 84.1286C199.211 87.6431 199.576 91.8898 198.334 94.6721C195.194 94.8186 191.105 92.9881 188.549 89.4736C186.066 86.1055 185.628 81.7856 186.87 79.0033Z" fill="#00D5FF"/>
<path d="M189.498 63.6273C192.127 61.9432 196.582 61.6504 200.598 63.4076C204.614 65.2381 207.17 68.7526 207.535 71.8278C204.906 73.5118 200.452 73.8047 196.436 71.9743C192.492 70.217 189.863 66.7025 189.498 63.6273Z" fill="#00D5FF"/>
<path d="M218.708 76.8799C219.804 78.3443 220.096 80.907 219.073 83.1768C218.051 85.4466 215.933 86.9109 214.035 87.1306C212.939 85.6662 212.647 83.1036 213.67 80.8338C214.692 78.6372 216.81 77.0996 218.708 76.8799Z" fill="#00D5FF"/>
<path d="M210.164 110.048C210.018 107.705 211.406 104.776 214.108 103.019C216.809 101.189 220.169 100.969 222.359 101.921C222.505 104.191 221.118 107.119 218.416 108.95C215.714 110.78 212.355 111 210.164 110.048Z" fill="#00D5FF"/>
<path d="M208.339 60.845C209.872 61.9433 210.895 64.2863 210.602 66.7757C210.31 69.2652 208.777 71.3153 207.024 72.0475C205.564 70.9492 204.468 68.6062 204.761 66.1167C205.053 63.7005 206.659 61.6504 208.339 60.845Z" fill="#00D5FF"/>
<path d="M241.419 83.9822C241.857 86.2519 240.835 89.3271 238.425 91.4505C235.942 93.5738 232.656 94.2328 230.319 93.5006C229.881 91.2308 230.903 88.1556 233.386 86.0323C235.796 83.9089 239.082 83.25 241.419 83.9822Z" fill="#00D5FF"/>
<path d="M190.667 110.487C188.841 107.925 188.476 103.605 190.302 99.8707C192.127 96.0633 195.778 93.6471 198.918 93.3542C200.671 95.9169 201.109 100.164 199.284 103.971C197.458 107.705 193.88 110.121 190.667 110.487Z" fill="#00D5FF"/>
<path d="M234.554 134.577H102.161V137.286H234.554V134.577Z" fill="#3D248A"/>
<path d="M73.0976 166.72H41.551V172.211H73.0976V166.72Z" fill="#00D5FF"/>
</svg>
